<svg xmlns="http://www.w3.org/2000/svg" width="900" height="600" viewBox="0 0 900 600"><path fill="#85444a" d="M0 0H900V600H0Z"/><path fill="#e9cb85" d="M0 0H32V600H0ZM868 0H900V600H868Z"/><circle cx="450" cy="300" r="138" fill="#85444a" stroke="#e9cb85" stroke-width="8"/><g transform="translate(350 200)"><g fill="#e9cb85" stroke="#e9cb85" stroke-width="5" stroke-linejoin="round"><path d="M93 64 62 28 15 40 62 67 10 68 64 94 17 101 75 121 80 157 59 179 94 168 100 185 106 168 141 179 120 157 125 121 183 101 136 94 190 68 138 67 185 40 138 28 107 64 109 43 132 48 116 31 96 33Z"/></g></g><polygon points="415.00,509.00 417.78,516.17 425.46,516.60 419.50,521.46 421.47,528.90 415.00,524.73 408.53,528.90 410.50,521.46 404.54,516.60 412.22,516.17" fill="#e9cb85"/><polygon points="450.00,509.00 452.78,516.17 460.46,516.60 454.50,521.46 456.47,528.90 450.00,524.73 443.53,528.90 445.50,521.46 439.54,516.60 447.22,516.17" fill="#e9cb85"/><polygon points="485.00,509.00 487.78,516.17 495.46,516.60 489.50,521.46 491.47,528.90 485.00,524.73 478.53,528.90 480.50,521.46 474.54,516.60 482.22,516.17" fill="#e9cb85"/></svg>