<svg xmlns="http://www.w3.org/2000/svg" width="900" height="600" viewBox="0 0 900 600"><path fill="#4f6951" d="M0 0H900V600H0Z"/><path fill="#815546" d="M0 600 900 0V600Z"/><path d="M0 600 900 0" stroke="#e2d8b2" stroke-width="35"/><circle cx="450" cy="300" r="138" fill="#4f6951" stroke="#e2d8b2" stroke-width="8"/><g transform="translate(350 200)"><g fill="#e2d8b2" stroke="#e2d8b2" stroke-width="5" stroke-linejoin="round"><path d="M142 25A82 82 0 1 0 142 175A70 70 0 0 1 142 25Z"/><polygon points="144.00,67.00 152.34,88.52 175.38,89.80 157.50,104.38 163.40,126.70 144.00,114.19 124.60,126.70 130.50,104.38 112.62,89.80 135.66,88.52" fill="#e2d8b2"/></g></g><polygon points="362.50,509.00 365.28,516.17 372.96,516.60 367.00,521.46 368.97,528.90 362.50,524.73 356.03,528.90 358.00,521.46 352.04,516.60 359.72,516.17" fill="#e2d8b2"/><polygon points="397.50,509.00 400.28,516.17 407.96,516.60 402.00,521.46 403.97,528.90 397.50,524.73 391.03,528.90 393.00,521.46 387.04,516.60 394.72,516.17" fill="#e2d8b2"/><polygon points="432.50,509.00 435.28,516.17 442.96,516.60 437.00,521.46 438.97,528.90 432.50,524.73 426.03,528.90 428.00,521.46 422.04,516.60 429.72,516.17" fill="#e2d8b2"/><polygon points="467.50,509.00 470.28,516.17 477.96,516.60 472.00,521.46 473.97,528.90 467.50,524.73 461.03,528.90 463.00,521.46 457.04,516.60 464.72,516.17" fill="#e2d8b2"/><polygon points="502.50,509.00 505.28,516.17 512.96,516.60 507.00,521.46 508.97,528.90 502.50,524.73 496.03,528.90 498.00,521.46 492.04,516.60 499.72,516.17" fill="#e2d8b2"/><polygon points="537.50,509.00 540.28,516.17 547.96,516.60 542.00,521.46 543.97,528.90 537.50,524.73 531.03,528.90 533.00,521.46 527.04,516.60 534.72,516.17" fill="#e2d8b2"/></svg>