<svg xmlns="http://www.w3.org/2000/svg" width="900" height="600" viewBox="0 0 900 600"><path fill="#366f83" d="M0 0H900V600H0Z"/><path fill="#b89d60" d="M0 600 900 0V600Z"/><path d="M0 600 900 0" stroke="#ede5d4" stroke-width="35"/><circle cx="450" cy="300" r="138" fill="#366f83" stroke="#ede5d4" stroke-width="8"/><g transform="translate(350 200)"><g fill="#ede5d4" stroke="#ede5d4" stroke-width="5" stroke-linejoin="round"><circle cx="100" cy="38" r="16" fill="none" stroke-width="9"/><path d="M100 55V170M62 81H138M25 130Q43 179 100 178 157 179 175 130M15 145 24 124 44 140M156 140 176 124 185 145" fill="none" stroke-width="10"/></g></g><polygon points="345.00,509.00 347.78,516.17 355.46,516.60 349.50,521.46 351.47,528.90 345.00,524.73 338.53,528.90 340.50,521.46 334.54,516.60 342.22,516.17" fill="#ede5d4"/><polygon points="380.00,509.00 382.78,516.17 390.46,516.60 384.50,521.46 386.47,528.90 380.00,524.73 373.53,528.90 375.50,521.46 369.54,516.60 377.22,516.17" fill="#ede5d4"/><polygon points="415.00,509.00 417.78,516.17 425.46,516.60 419.50,521.46 421.47,528.90 415.00,524.73 408.53,528.90 410.50,521.46 404.54,516.60 412.22,516.17" fill="#ede5d4"/><polygon points="450.00,509.00 452.78,516.17 460.46,516.60 454.50,521.46 456.47,528.90 450.00,524.73 443.53,528.90 445.50,521.46 439.54,516.60 447.22,516.17" fill="#ede5d4"/><polygon points="485.00,509.00 487.78,516.17 495.46,516.60 489.50,521.46 491.47,528.90 485.00,524.73 478.53,528.90 480.50,521.46 474.54,516.60 482.22,516.17" fill="#ede5d4"/><polygon points="520.00,509.00 522.78,516.17 530.46,516.60 524.50,521.46 526.47,528.90 520.00,524.73 513.53,528.90 515.50,521.46 509.54,516.60 517.22,516.17" fill="#ede5d4"/><polygon points="555.00,509.00 557.78,516.17 565.46,516.60 559.50,521.46 561.47,528.90 555.00,524.73 548.53,528.90 550.50,521.46 544.54,516.60 552.22,516.17" fill="#ede5d4"/></svg>